<svg width="20" height="20" viewBox="0 0 20 20" fill="none" xmlns="http://www.w3.org/2000/svg">
<path d="M10.0005 5C9.38242 5 8.77823 5.18328 8.26433 5.52666C7.75043 5.87004 7.34989 6.3581 7.11336 6.92911C6.87684 7.50013 6.81496 8.12847 6.93553 8.73466C7.05611 9.34085 7.35374 9.89767 7.79078 10.3347C8.22782 10.7717 8.78464 11.0694 9.39083 11.19C9.99702 11.3105 10.6254 11.2486 11.1964 11.0121C11.7674 10.7756 12.2555 10.3751 12.5988 9.86116C12.9422 9.34725 13.1255 8.74307 13.1255 8.125C13.1255 7.2962 12.7962 6.50134 12.2102 5.91529C11.6241 5.32924 10.8293 5 10.0005 5ZM10.0005 10C9.62965 10 9.26714 9.89003 8.95879 9.68401C8.65045 9.47798 8.41013 9.18514 8.26821 8.84253C8.1263 8.49992 8.08917 8.12292 8.16152 7.75921C8.23386 7.39549 8.41244 7.0614 8.67466 6.79917C8.93689 6.53695 9.27098 6.35837 9.63469 6.28603C9.99841 6.21368 10.3754 6.25081 10.718 6.39273C11.0606 6.53464 11.3535 6.77496 11.5595 7.08331C11.7655 7.39165 11.8755 7.75416 11.8755 8.125C11.8755 8.62228 11.6779 9.09919 11.3263 9.45083C10.9747 9.80246 10.4978 10 10.0005 10ZM10.0005 1.25C8.17776 1.25207 6.43028 1.97706 5.14141 3.26592C3.85255 4.55479 3.12756 6.30227 3.12549 8.125C3.12549 10.5781 4.25908 13.1781 6.40674 15.6445C7.37175 16.759 8.45787 17.7626 9.64502 18.6367C9.75011 18.7103 9.87531 18.7498 10.0036 18.7498C10.1319 18.7498 10.2571 18.7103 10.3622 18.6367C11.5472 17.7623 12.6312 16.7587 13.5942 15.6445C15.7388 13.1781 16.8755 10.5781 16.8755 8.125C16.8734 6.30227 16.1484 4.55479 14.8596 3.26592C13.5707 1.97706 11.8232 1.25207 10.0005 1.25ZM10.0005 17.3438C8.70908 16.3281 4.37549 12.5977 4.37549 8.125C4.37549 6.63316 4.96812 5.20242 6.02301 4.14752C7.0779 3.09263 8.50865 2.5 10.0005 2.5C11.4923 2.5 12.9231 3.09263 13.978 4.14752C15.0329 5.20242 15.6255 6.63316 15.6255 8.125C15.6255 12.5961 11.2919 16.3281 10.0005 17.3438Z" fill="#F8F9FB"/>
</svg>
