<svg width="21" height="20" viewBox="0 0 21 20" fill="none" xmlns="http://www.w3.org/2000/svg">
<path d="M18.1921 17.0575L14.2804 13.1466C15.4142 11.7854 15.9795 10.0395 15.8589 8.27214C15.7382 6.50475 14.9408 4.85192 13.6325 3.65748C12.3243 2.46304 10.6059 1.81895 8.83486 1.8592C7.06382 1.89945 5.37647 2.62094 4.12383 3.87358C2.87118 5.12622 2.14969 6.81357 2.10944 8.58462C2.0692 10.3557 2.71328 12.074 3.90772 13.3823C5.10217 14.6906 6.75499 15.488 8.52238 15.6086C10.2898 15.7293 12.0356 15.1639 13.3968 14.0302L17.3077 17.9419C17.3658 17.9999 17.4348 18.046 17.5106 18.0774C17.5865 18.1089 17.6678 18.125 17.7499 18.125C17.8321 18.125 17.9134 18.1089 17.9892 18.0774C18.0651 18.046 18.1341 17.9999 18.1921 17.9419C18.2502 17.8838 18.2963 17.8149 18.3277 17.739C18.3591 17.6631 18.3753 17.5818 18.3753 17.4997C18.3753 17.4176 18.3591 17.3363 18.3277 17.2604C18.2963 17.1845 18.2502 17.1156 18.1921 17.0575ZM3.37493 8.74969C3.37493 7.63717 3.70483 6.54963 4.32292 5.62461C4.941 4.69958 5.81951 3.97861 6.84734 3.55287C7.87517 3.12712 9.00617 3.01573 10.0973 3.23277C11.1885 3.44981 12.1907 3.98554 12.9774 4.77221C13.7641 5.55888 14.2998 6.56116 14.5169 7.65231C14.7339 8.74345 14.6225 9.87445 14.1968 10.9023C13.771 11.9301 13.05 12.8086 12.125 13.4267C11.2 14.0448 10.1125 14.3747 8.99993 14.3747C7.5086 14.373 6.07882 13.7799 5.02429 12.7253C3.96975 11.6708 3.37659 10.241 3.37493 8.74969Z" fill="#11151D"/>
</svg>
