<svg width="21" height="20" viewBox="0 0 21 20" fill="none" xmlns="http://www.w3.org/2000/svg">
<path d="M16.0227 4.27031C15.275 3.51514 14.3857 2.91486 13.4058 2.50383C12.4258 2.09281 11.3744 1.87912 10.3117 1.875H10.25C8.09512 1.875 6.02849 2.73102 4.50476 4.25476C2.98102 5.77849 2.125 7.84512 2.125 10V14.375C2.125 14.8723 2.32254 15.3492 2.67417 15.7008C3.02581 16.0525 3.50272 16.25 4 16.25H5.25C5.74728 16.25 6.2242 16.0525 6.57583 15.7008C6.92746 15.3492 7.125 14.8723 7.125 14.375V11.25C7.125 10.7527 6.92746 10.2758 6.57583 9.92417C6.2242 9.57254 5.74728 9.375 5.25 9.375H3.40313C3.52366 8.07182 4.01315 6.83 4.81424 5.79508C5.61532 4.76016 6.69481 3.97502 7.92617 3.53169C9.15753 3.08836 10.4898 3.0052 11.7667 3.29196C13.0436 3.57872 14.2124 4.22352 15.1359 5.15078C16.2648 6.28539 16.9591 7.78052 17.0977 9.375H15.25C14.7527 9.375 14.2758 9.57254 13.9242 9.92417C13.5725 10.2758 13.375 10.7527 13.375 11.25V14.375C13.375 14.8723 13.5725 15.3492 13.9242 15.7008C14.2758 16.0525 14.7527 16.25 15.25 16.25H17.125C17.125 16.7473 16.9275 17.2242 16.5758 17.5758C16.2242 17.9275 15.7473 18.125 15.25 18.125H10.875C10.7092 18.125 10.5503 18.1908 10.4331 18.3081C10.3158 18.4253 10.25 18.5842 10.25 18.75C10.25 18.9158 10.3158 19.0747 10.4331 19.1919C10.5503 19.3092 10.7092 19.375 10.875 19.375H15.25C16.0788 19.375 16.8737 19.0458 17.4597 18.4597C18.0458 17.8737 18.375 17.0788 18.375 16.25V10C18.3791 8.93717 18.1734 7.88398 17.7697 6.90077C17.3661 5.91757 16.7724 5.02368 16.0227 4.27031ZM5.25 10.625C5.41576 10.625 5.57473 10.6908 5.69194 10.8081C5.80915 10.9253 5.875 11.0842 5.875 11.25V14.375C5.875 14.5408 5.80915 14.6997 5.69194 14.8169C5.57473 14.9342 5.41576 15 5.25 15H4C3.83424 15 3.67527 14.9342 3.55806 14.8169C3.44085 14.6997 3.375 14.5408 3.375 14.375V10.625H5.25ZM15.25 15C15.0842 15 14.9253 14.9342 14.8081 14.8169C14.6908 14.6997 14.625 14.5408 14.625 14.375V11.25C14.625 11.0842 14.6908 10.9253 14.8081 10.8081C14.9253 10.6908 15.0842 10.625 15.25 10.625H17.125V15H15.25Z" fill="#11151D"/>
</svg>
