<svg width="21" height="20" viewBox="0 0 21 20" fill="none" xmlns="http://www.w3.org/2000/svg">
<path d="M10.25 1.875C8.64303 1.875 7.07214 2.35152 5.736 3.24431C4.39985 4.1371 3.35844 5.40605 2.74348 6.8907C2.12852 8.37535 1.96762 10.009 2.28112 11.5851C2.59463 13.1612 3.36846 14.6089 4.50476 15.7452C5.64106 16.8815 7.0888 17.6554 8.6649 17.9689C10.241 18.2824 11.8747 18.1215 13.3593 17.5065C14.844 16.8916 16.1129 15.8502 17.0057 14.514C17.8985 13.1779 18.375 11.607 18.375 10C18.3727 7.84581 17.516 5.78051 15.9927 4.25727C14.4695 2.73403 12.4042 1.87727 10.25 1.875ZM10.25 16.875C8.89026 16.875 7.56105 16.4718 6.43046 15.7164C5.29987 14.9609 4.41868 13.8872 3.89833 12.6309C3.37798 11.3747 3.24183 9.99237 3.5071 8.65875C3.77238 7.32513 4.42716 6.10013 5.38864 5.13864C6.35013 4.17716 7.57514 3.52237 8.90876 3.2571C10.2424 2.99183 11.6247 3.12798 12.881 3.64833C14.1372 4.16868 15.2109 5.04987 15.9664 6.18045C16.7218 7.31104 17.125 8.64025 17.125 10C17.1229 11.8227 16.3979 13.5702 15.1091 14.8591C13.8202 16.1479 12.0727 16.8729 10.25 16.875ZM11.5 13.75C11.5 13.9158 11.4342 14.0747 11.3169 14.1919C11.1997 14.3092 11.0408 14.375 10.875 14.375C10.5435 14.375 10.2255 14.2433 9.99112 14.0089C9.7567 13.7745 9.625 13.4565 9.625 13.125V10C9.45924 10 9.30027 9.93415 9.18306 9.81694C9.06585 9.69973 9 9.54076 9 9.375C9 9.20924 9.06585 9.05027 9.18306 8.93306C9.30027 8.81585 9.45924 8.75 9.625 8.75C9.95652 8.75 10.2745 8.8817 10.5089 9.11612C10.7433 9.35054 10.875 9.66848 10.875 10V13.125C11.0408 13.125 11.1997 13.1908 11.3169 13.3081C11.4342 13.4253 11.5 13.5842 11.5 13.75ZM9 6.5625C9 6.37708 9.05499 6.19582 9.158 6.04165C9.26101 5.88748 9.40743 5.76732 9.57874 5.69636C9.75004 5.62541 9.93854 5.60684 10.1204 5.64301C10.3023 5.67919 10.4693 5.76848 10.6004 5.89959C10.7315 6.0307 10.8208 6.19775 10.857 6.3796C10.8932 6.56146 10.8746 6.74996 10.8036 6.92127C10.7327 7.09257 10.6125 7.23899 10.4584 7.342C10.3042 7.44502 10.1229 7.5 9.9375 7.5C9.68886 7.5 9.45041 7.40123 9.27459 7.22541C9.09878 7.0496 9 6.81114 9 6.5625Z" fill="#11151D"/>
</svg>
