<svg width="21" height="20" viewBox="0 0 21 20" fill="none" xmlns="http://www.w3.org/2000/svg">
<g clip-path="url(#clip0_2280_30)">
<path d="M7.75 16.875C7.75 17.1222 7.67669 17.3639 7.53934 17.5695C7.40199 17.775 7.20676 17.9352 6.97835 18.0299C6.74995 18.1245 6.49861 18.1492 6.25614 18.101C6.01366 18.0527 5.79093 17.9337 5.61612 17.7589C5.4413 17.5841 5.32225 17.3613 5.27402 17.1189C5.22579 16.8764 5.25054 16.6251 5.34515 16.3966C5.43976 16.1682 5.59998 15.973 5.80554 15.8357C6.0111 15.6983 6.25277 15.625 6.5 15.625C6.83152 15.625 7.14946 15.7567 7.38388 15.9911C7.6183 16.2255 7.75 16.5435 7.75 16.875ZM14.625 15.625C14.3778 15.625 14.1361 15.6983 13.9305 15.8357C13.725 15.973 13.5648 16.1682 13.4701 16.3966C13.3755 16.6251 13.3508 16.8764 13.399 17.1189C13.4472 17.3613 13.5663 17.5841 13.7411 17.7589C13.9159 17.9337 14.1387 18.0527 14.3811 18.101C14.6236 18.1492 14.8749 18.1245 15.1034 18.0299C15.3318 17.9352 15.527 17.775 15.6643 17.5695C15.8017 17.3639 15.875 17.1222 15.875 16.875C15.875 16.5435 15.7433 16.2255 15.5089 15.9911C15.2745 15.7567 14.9565 15.625 14.625 15.625ZM18.3477 5.80859L16.1187 13.0516C16.002 13.4355 15.7646 13.7716 15.4418 14.01C15.1189 14.2484 14.7279 14.3764 14.3266 14.375H6.81797C6.41092 14.3735 6.01531 14.2401 5.6904 13.9949C5.36548 13.7497 5.12874 13.4059 5.01562 13.0148L2.18906 3.125H0.875C0.70924 3.125 0.550269 3.05915 0.433058 2.94194C0.315848 2.82473 0.25 2.66576 0.25 2.5C0.25 2.33424 0.315848 2.17527 0.433058 2.05806C0.550269 1.94085 0.70924 1.875 0.875 1.875H2.18906C2.46048 1.8759 2.7243 1.96468 2.94104 2.12805C3.15778 2.29141 3.31579 2.52058 3.39141 2.78125L4.025 5H17.75C17.8478 4.99996 17.9443 5.02288 18.0316 5.06691C18.1189 5.11094 18.1947 5.17485 18.2528 5.25351C18.311 5.33216 18.3498 5.42336 18.3663 5.51977C18.3828 5.61618 18.3764 5.7151 18.3477 5.80859ZM16.9039 6.25H4.38203L6.21719 12.6719C6.25452 12.8024 6.33335 12.9172 6.44174 12.999C6.55014 13.0807 6.6822 13.125 6.81797 13.125H14.3266C14.4603 13.125 14.5905 13.0822 14.6981 13.0027C14.8057 12.9233 14.8849 12.8114 14.9242 12.6836L16.9039 6.25Z" fill="#11151D"/>
</g>
<defs>
<clipPath id="clip0_2280_30">
<rect width="20" height="20" fill="white" transform="translate(0.25)"/>
</clipPath>
</defs>
</svg>
