<svg width="24" height="140" viewBox="0 0 24 140" fill="none" xmlns="http://www.w3.org/2000/svg">
<circle cy="70" r="24" fill="#4A508E" fill-opacity="0.4"/>
<path d="M8.46927 63.0302C8.39959 62.9605 8.34432 62.8778 8.3066 62.7868C8.26889 62.6957 8.24948 62.5981 8.24948 62.4996C8.24948 62.401 8.26889 62.3035 8.3066 62.2124C8.34432 62.1214 8.39959 62.0386 8.46927 61.969C8.53896 61.8993 8.62168 61.844 8.71273 61.8063C8.80377 61.7686 8.90135 61.7492 8.9999 61.7492C9.09844 61.7492 9.19603 61.7686 9.28707 61.8063C9.37812 61.844 9.46084 61.8993 9.53052 61.969L17.0305 69.469C17.1003 69.5386 17.1556 69.6213 17.1933 69.7124C17.2311 69.8034 17.2505 69.901 17.2505 69.9996C17.2505 70.0981 17.2311 70.1957 17.1933 70.2868C17.1556 70.3778 17.1003 70.4606 17.0305 70.5302L9.53052 78.0302C9.38979 78.1709 9.19892 78.25 8.9999 78.25C8.80088 78.25 8.61 78.1709 8.46927 78.0302C8.32854 77.8895 8.24948 77.6986 8.24948 77.4996C8.24948 77.3006 8.32854 77.1097 8.46927 76.969L15.4396 69.9996L8.46927 63.0302Z" fill="#F8F9FB"/>
</svg>
