<svg width="48" height="48" viewBox="0 0 48 48" fill="none" xmlns="http://www.w3.org/2000/svg">
<path d="M16.9388 10.0614C16.7994 9.92203 16.6889 9.75657 16.6135 9.57449C16.538 9.3924 16.4992 9.19723 16.4992 9.00014C16.4992 8.80305 16.538 8.60789 16.6135 8.4258C16.6889 8.24371 16.7994 8.07825 16.9388 7.93889C17.0782 7.79953 17.2436 7.68898 17.4257 7.61355C17.6078 7.53813 17.8029 7.49931 18 7.49931C18.1971 7.49931 18.3923 7.53813 18.5744 7.61355C18.7565 7.68898 18.9219 7.79953 19.0613 7.93889L34.0613 22.9389C34.2008 23.0782 34.3114 23.2436 34.3869 23.4257C34.4624 23.6078 34.5012 23.803 34.5012 24.0001C34.5012 24.1973 34.4624 24.3925 34.3869 24.5746C34.3114 24.7566 34.2008 24.9221 34.0613 25.0614L19.0613 40.0614C18.7798 40.3429 18.3981 40.501 18 40.501C17.602 40.501 17.2203 40.3429 16.9388 40.0614C16.6573 39.7799 16.4992 39.3982 16.4992 39.0001C16.4992 38.6021 16.6573 38.2204 16.9388 37.9389L30.8794 24.0001L16.9388 10.0614Z" fill="#F8F9FB"/>
</svg>
