<svg width="48" height="48" viewBox="0 0 48 48" fill="none" xmlns="http://www.w3.org/2000/svg">
<path d="M31.0612 37.9386C31.2006 38.078 31.3111 38.2434 31.3865 38.4255C31.462 38.6076 31.5008 38.8028 31.5008 38.9999C31.5008 39.197 31.462 39.3921 31.3865 39.5742C31.3111 39.7563 31.2006 39.9217 31.0612 40.0611C30.9218 40.2005 30.7564 40.311 30.5743 40.3864C30.3922 40.4619 30.1971 40.5007 30 40.5007C29.8029 40.5007 29.6077 40.4619 29.4256 40.3864C29.2435 40.311 29.0781 40.2005 28.9387 40.0611L13.9387 25.0611C13.7992 24.9218 13.6886 24.7564 13.6131 24.5743C13.5376 24.3922 13.4988 24.197 13.4988 23.9999C13.4988 23.8027 13.5376 23.6075 13.6131 23.4254C13.6886 23.2434 13.7992 23.0779 13.9387 22.9386L28.9387 7.93861C29.2202 7.65715 29.6019 7.49902 30 7.49902C30.398 7.49902 30.7797 7.65715 31.0612 7.93861C31.3427 8.22007 31.5008 8.60181 31.5008 8.99986C31.5008 9.3979 31.3427 9.77965 31.0612 10.0611L17.1206 23.9999L31.0612 37.9386Z" fill="#F8F9FB"/>
</svg>
